inDegrees=no
num_controls=7
num_derivatives=13
num_iterations=173
num_multipliers=7
num_parameters=0
num_slacks=7
num_states=26
objective=0.508946
objective_accelerations=0.040981
objective_balance=0.003571
objective_effort=0.029882
objective_height=0.322042
objective_ligament=0.112470
solver_duration=2419.190409
status=Solve_Succeeded
success=true
DataType=double
version=3
OpenSimVersion=4.5
endheader
time	/jointset/ground_pelvis/pelvis_tilt/value	/jointset/ground_pelvis/pelvis_tx/value	/jointset/ground_pelvis/pelvis_ty/value	/jointset/hip_l/hip_flexion_l/value	/jointset/hip_l/hip_adduction_l/value	/jointset/hip_l/hip_rotation_l/value	/jointset/back/lumbar_extension/value	/jointset/patellofemoral_l/patellar_flexion_l/value	/jointset/knee_l/knee_flexion_l/value	/jointset/knee_l/knee_adduction_l/value	/jointset/knee_l/knee_rotation_l/value	/jointset/ankle_l/ankle_angle_l/value	/jointset/subtalar_l/subtalar_angle_l/value	/jointset/ground_pelvis/pelvis_tilt/speed	/jointset/ground_pelvis/pelvis_tx/speed	/jointset/ground_pelvis/pelvis_ty/speed	/jointset/hip_l/hip_flexion_l/speed	/jointset/hip_l/hip_adduction_l/speed	/jointset/hip_l/hip_rotation_l/speed	/jointset/back/lumbar_extension/speed	/jointset/patellofemoral_l/patellar_flexion_l/speed	/jointset/knee_l/knee_flexion_l/speed	/jointset/knee_l/knee_adduction_l/speed	/jointset/knee_l/knee_rotation_l/speed	/jointset/ankle_l/ankle_angle_l/speed	/jointset/subtalar_l/subtalar_angle_l/speed	/forceset/tau_hip_flexion_l	/forceset/tau_hip_adduction_l	/forceset/tau_hip_rotation_l	/forceset/tau_knee_flexion_l	/forceset/tau_ankle_angle_l	/forceset/tau_subtalar_angle_l	/forceset/tau_lumbar_extension	lambda_cid13_p0	lambda_cid13_p1	lambda_cid13_p2	lambda_cid13_p3	lambda_cid13_p4	lambda_cid13_p5	lambda_cid14_p0	/jointset/ground_pelvis/pelvis_tilt/accel	/jointset/ground_pelvis/pelvis_tx/accel	/jointset/ground_pelvis/pelvis_ty/accel	/jointset/hip_l/hip_flexion_l/accel	/jointset/hip_l/hip_adduction_l/accel	/jointset/hip_l/hip_rotation_l/accel	/jointset/back/lumbar_extension/accel	/jointset/patellofemoral_l/patellar_flexion_l/accel	/jointset/knee_l/knee_flexion_l/accel	/jointset/knee_l/knee_adduction_l/accel	/jointset/knee_l/knee_rotation_l/accel	/jointset/ankle_l/ankle_angle_l/accel	/jointset/subtalar_l/subtalar_angle_l/accel	gamma_cid13_p0	gamma_cid13_p1	gamma_cid13_p2	gamma_cid13_p3	gamma_cid13_p4	gamma_cid13_p5	gamma_cid14_p0
0.5	-0.1167097187380939	-0.05240547054286174	0.8260433146875217	0.8857703897362537	-0.3117090177446906	-0.1363175282464267	-0.7844387174023674	0.7906895356530999	0.7906895356531763	-0.07751396974265666	-0.17182358160461	0.0815042445967977	0.01003057963960836	-0.2289805910869305	-0.1641857041232952	-0.3525963686155056	1.519500004591309	-0.1095917119043494	0.5573522567502004	-0.855694859127977	1.551526265059924	1.55152626505989	-0.0117946383481231	0.01519261884404077	0.3308623099307204	-0.009889483993683825	-0.2843712331440058	0.04971903558806001	-0.007348231100395008	-0.1990095513511124	0.1050579666766201	0.03038518554786432	0.3316074398736928	-10.80116291005129	-12.18035412741458	2.487346963465456	-9.03732159426589	-697.7545552529227	-55.90931180981401	-14.74869633547688	0.4196791348118882	0.6750355106614688	-0.2075157481581439	-1.185423204946787	0.428644241674333	-0.07194289386400328	1.760955735159983	-0.5808717346741574	-0.5808717346741152	-0.05832897871652911	-0.01537468474062852	0.3158473836631656	0.5561854080185163	-1.798625695466266e-07	-4.097907630659103e-07	7.314524231905539e-07	2.79420873614158e-08	-1.753158295583563e-07	-7.381800108745428e-08	-1.575080909555437e-07
0.51	-0.1189784407192617	-0.0540135505683387	0.8225078554234949	0.9009032110688436	-0.3127841349962941	-0.1307485433077059	-0.7929065424245249	0.8061719780471137	0.8061719780471919	-0.07763654703759901	-0.1716731316785864	0.08482704867157434	0.009958289168386909	-0.2247561367824648	-0.1574289049393628	-0.3544068835291405	1.50680582737348	-0.1054298695862994	0.5563139883605971	-0.8377570787550768	1.544617100626274	1.544617100626225	-0.01273077505945285	0.01486809954360829	0.3335733287353443	-0.004604213985124866	-0.2913709949117073	0.05037325946185496	-0.007372133716341854	-0.2014155553403778	0.1036260834222979	0.03076611182241805	0.3382867211638057	-11.52524459435715	-12.16966168062988	2.429275455481203	-8.700649444027173	-702.3241198654804	-55.74611109535688	-14.17089316605264	0.4249603157581479	0.6762175263086	-0.1545635164609286	-1.350202400030955	0.4101854346553029	-0.1395244642598162	1.827149170563948	-0.7976747012422379	-0.7976747012445345	-0.1127948478742331	-0.04523091156785191	0.2299357448714455	0.5093346050212688	-1.780542659036605e-07	-3.675505959435939e-07	7.32202941668724e-07	3.431106224267073e-08	-1.704664595725312e-07	-5.45028664305625e-08	-1.532792052483252e-07
0.52	-0.1212046918098823	-0.05555401952116657	0.8189569421796328	0.9159013331452945	-0.313817587583156	-0.1251938921834374	-0.8011915976465105	0.8215749816160851	0.8215749816161624	-0.07776879346577294	-0.1715267750173347	0.08817320425759947	0.009937778758800439	-0.2204864129782332	-0.150663489593479	-0.3556871645825514	1.492560153362451	-0.1012587789568512	0.5544854938609428	-0.8191408990938188	1.535638500051351	1.535638500051287	-0.013728464992103	0.01437396588824269	0.3355326121803464	0.0004665283333010794	-0.2983707566793979	0.05102748333564455	-0.007396036332346927	-0.2038215593296389	0.1021942001679748	0.03114703809696643	0.3449660024539297	-12.24906931092349	-12.16041474117208	2.373034898497528	-8.416872161111804	-706.9281687198252	-55.62039414534498	-13.58749198079706	0.4287330347650237	0.6767587430517779	-0.1014689761133754	-1.495722563586685	0.4304939039539705	-0.2299881158741831	1.896635592831524	-0.9947589629286401	-0.9947589629286434	-0.07063962298062737	-0.04929755572724746	0.1655003117388464	0.5132798699919214	-1.773752126415652e-07	-3.22756221071481e-07	7.364799301943191e-07	4.303069785922868e-08	-1.688569645167589e-07	-3.386483556807306e-08	-1.491564356403599e-07
0.53	-0.1233882272316547	-0.05702688218577233	0.815396036040639	0.9307490079679347	-0.3148094516308237	-0.1196615260574644	-0.8092871921261164	0.8368771265864742	0.8368771265864707	-0.07791171522415043	-0.1713862490205924	0.09153479280314895	0.009966574399896885	-0.2162358982915458	-0.1439167895253659	-0.356389118127343	1.476691577818676	-0.09713469867330063	0.5518370738921846	-0.7998727932309934	1.524369778575229	1.524369778575201	-0.01490600633811546	0.01368292546818111	0.3366172223745176	0.005217129119696185	-0.3051975569053346	0.05155161806544041	-0.007412063260668709	-0.2067045081959301	0.1008888096275253	0.03140913637913798	0.3515403335363124	-12.9745660936614	-12.09444756736908	2.302244601962373	-7.944181426980863	-711.9990151737932	-55.48509999864784	-12.99962095963303	0.4209080225075721	0.6724732312444912	-0.03885038263732492	-1.674932677986114	0.4002034388153393	-0.3050022910069106	1.957678622413578	-1.256006659440646	-1.256006659435367	-0.1488623056295858	-0.08610318957308746	0.05474590291742703	0.4445916107363981	-1.731989466894175e-07	-2.778971832232829e-07	7.30720481357619e-07	4.804651843784216e-08	-1.602383501853959e-07	-1.583114822280745e-08	-1.43564055560565e-07
0.54	-0.1255297180391791	-0.05843250833118643	0.8118312519984023	0.9454294955094995	-0.3157607072059999	-0.1141601908019113	-0.817186949439212	0.8520539687582043	0.8520539687581195	-0.07806792257904337	-0.1712540526089299	0.09490218835657278	0.01004060433441196	-0.2120774901293828	-0.1372161857551455	-0.3564627452311306	1.45912269714637	-0.09313708445936174	0.5482793197782173	-0.7799734657919454	1.51057794031964	1.510577940319646	-0.01638558429284784	0.01270804887101909	0.3366940137551354	0.009513387017014681	-0.3120243571312609	0.0520757527952314	-0.007428090189049724	-0.2095874570622173	0.09958341908707502	0.03167123466130471	0.3581146646187055	-13.70096422507845	-12.02972731383275	2.233258567837527	-7.517811887852998	-717.1176357020755	-55.38735472048187	-12.40874387092927	0.4103117298601338	0.6675394834732485	0.02419631208743895	-1.835783589293019	0.4052006900316123	-0.4118549449160078	2.022879908076015	-1.499382318822241	-1.499382318822282	-0.1310469447246283	-0.106064791147337	-0.03606345097181416	0.4224112921766038	-1.651534241440205e-07	-2.329666033589908e-07	7.138568890562519e-07	4.896450110213405e-08	-1.438649655916772e-07	-6.788622157469428e-10	-1.363457234693844e-07
